<svg width="500" height="500" viewBox="0 0 500 500" fill="none" xmlns="http://www.w3.org/2000/svg">
<path d="M426.069 73.93C402.956 50.7703 375.504 32.393 345.284 19.8489C315.064 7.30483 282.668 0.839829 249.948 0.823517C217.227 0.807206 184.825 7.23991 154.592 19.7539C124.36 32.2678 96.8899 50.6177 73.7534 73.7544C50.6168 96.8911 32.2671 124.361 19.7533 154.594C7.23951 184.826 0.80699 217.229 0.823487 249.949C0.839985 282.669 7.30517 315.065 19.8494 345.285C32.3937 375.505 50.7711 402.957 73.931 426.07C97.0445 449.23 124.496 467.607 154.716 480.151C184.936 492.695 217.332 499.16 250.052 499.177C282.773 499.193 315.175 492.76 345.408 480.246C375.64 467.732 403.11 449.382 426.247 426.246C449.383 403.109 467.733 375.639 480.247 345.406C492.761 315.174 499.193 282.771 499.177 250.051C499.16 217.331 492.695 184.935 480.151 154.715C467.606 124.495 449.229 97.0434 426.069 73.93V73.93ZM396.856 239.449C396.826 238.604 396.8 237.76 396.761 236.914C395.061 200.173 384.654 162.926 366.23 126.833C385.252 119.316 403.546 110.074 420.884 99.224C455.354 138.056 475.4 187.574 477.652 239.449H396.856ZM180.933 139.768C200.16 144.188 219.743 146.884 239.449 147.822V239.449H123.586C123.603 238.999 123.614 238.549 123.635 238.097C125.445 198.23 138.202 162.361 154.091 132.509C162.531 135.143 171.485 137.61 180.933 139.768ZM164.933 113.743C172.022 102.384 179.757 91.4416 188.1 80.969C203.495 61.652 220.689 43.8407 239.452 27.775V126.694C221.598 125.785 203.855 123.337 186.422 119.375C178.939 117.686 171.768 115.781 164.928 113.743H164.933ZM260.556 27.855C279.186 43.8991 296.253 61.6718 311.531 80.935C320.19 91.849 328.188 103.271 335.482 115.141C321.499 119.347 307.21 122.46 292.744 124.45C282.071 125.904 271.325 126.751 260.556 126.986V27.855ZM327.641 67.3C315.868 52.5057 303.097 38.5334 289.418 25.481C333.08 33.0538 373.553 53.2969 405.8 83.692C389.944 93.3228 373.26 101.52 355.947 108.185C347.445 93.9334 337.988 80.2738 327.641 67.3V67.3ZM172.011 67.3C161.936 79.8807 152.698 93.1092 144.356 106.9C127.04 100.555 110.286 92.7692 94.27 83.625C126.455 53.3153 166.823 33.1117 210.376 25.516C196.651 38.5542 183.833 52.5147 172.011 67.3V67.3ZM133.9 125.55C114.967 162.063 104.278 199.778 102.564 236.977C102.526 237.801 102.501 238.625 102.471 239.449H22.348C24.5998 187.573 44.647 138.054 79.118 99.222C96.5452 109.636 114.881 118.448 133.9 125.55V125.55ZM102.638 260.55C104.398 294.52 113.346 328.11 129.483 361.321C94.038 375.243 72.537 390.096 71.283 390.972L73.783 394.546C42.528 356.658 24.472 309.616 22.35 260.546L102.638 260.55ZM123.776 260.55H239.449V337.35C219.743 338.287 200.16 340.981 180.933 345.399C169.749 347.954 159.253 350.938 149.496 354.127C134.178 323.2 125.604 292.008 123.774 260.551L123.776 260.55ZM186.419 365.8C203.852 361.838 221.595 359.389 239.449 358.48V469.482C205.419 437.803 178.841 405.651 159.714 373.027C168.092 370.383 177.013 367.92 186.419 365.8ZM260.551 469.4V358.185C287.752 358.763 314.725 363.281 340.629 371.6C321.586 404.63 294.894 437.228 260.551 469.393V469.4ZM295.064 339.748C283.619 338.21 272.096 337.32 260.551 337.085V260.551H375.551C373.783 291.475 365.491 322.185 350.674 352.681C332.585 346.631 313.966 342.299 295.064 339.741V339.748ZM260.551 239.449V148.092C272.096 147.856 283.619 146.968 295.064 145.43C312.391 143.086 329.483 139.248 346.149 133.96C361.596 163.507 373.908 198.837 375.689 238.038C375.71 238.508 375.723 238.979 375.741 239.449H260.551ZM84.991 407.193C90.525 403.593 110.149 391.444 139.415 380.143C157.792 412.349 182.943 444.038 214.866 475.211C167.096 467.868 122.933 445.417 88.851 411.148C87.5463 409.843 86.2597 408.525 84.991 407.193ZM284.963 475.239C317.134 443.7 342.406 411.589 360.777 378.906C379.713 386.578 397.864 396.06 414.977 407.222C413.717 408.543 412.44 409.852 411.146 411.148C377.023 445.459 332.797 467.922 284.963 475.239V475.239ZM425.25 395.7L428.471 390.807C410.206 378.725 390.816 368.436 370.571 360.083C386.234 327.319 394.94 294.142 396.688 260.552H477.649C475.5 310.134 457.086 357.629 425.25 395.7V395.7Z" fill="white"/>
</svg>
