<svg width="12" height="11" viewBox="0 0 12 11" fill="none" xmlns="http://www.w3.org/2000/svg">
<path d="M11.53 5.47L10.21 4.15L6.20997 0.150005C6.16349 0.103141 6.10819 0.0659435 6.04726 0.0405592C5.98633 0.0151748 5.92098 0.00210571 5.85497 0.00210571C5.78897 0.00210571 5.72362 0.0151748 5.66269 0.0405592C5.60176 0.0659435 5.54646 0.103141 5.49997 0.150005L0.149974 5.5C0.10311 5.54649 0.065913 5.60179 0.0405287 5.66272C0.0151443 5.72365 0.0020752 5.789 0.0020752 5.855C0.0020752 5.92101 0.0151443 5.98636 0.0405287 6.04729C0.065913 6.10822 0.10311 6.16352 0.149974 6.21C0.19462 6.25804 0.248825 6.2962 0.309103 6.32204C0.369381 6.34787 0.434399 6.3608 0.499974 6.36C0.56555 6.3608 0.630568 6.34787 0.690846 6.32204C0.751124 6.2962 0.805329 6.25804 0.849974 6.21L1.34997 5.71V10.16C1.34997 10.2926 1.40265 10.4198 1.49642 10.5136C1.59019 10.6073 1.71737 10.66 1.84997 10.66H4.31997V6.91C4.31997 6.79861 4.36422 6.69179 4.44299 6.61302C4.52175 6.53425 4.62858 6.49 4.73997 6.49H6.99997C7.11137 6.49 7.21819 6.53425 7.29696 6.61302C7.37572 6.69179 7.41997 6.79861 7.41997 6.91V10.66H9.85997C9.99258 10.66 10.1198 10.6073 10.2135 10.5136C10.3073 10.4198 10.36 10.2926 10.36 10.16V5.71L10.83 6.18C10.9234 6.27162 11.0491 6.32293 11.18 6.32293C11.3109 6.32293 11.4365 6.27162 11.53 6.18C11.6257 6.08462 11.6796 5.95514 11.68 5.82C11.6781 5.68812 11.6242 5.56232 11.53 5.47Z" fill="white"/>
</svg>
