<svg width="774" height="777" viewBox="0 0 774 777" fill="none" xmlns="http://www.w3.org/2000/svg">
<path fill-rule="evenodd" clip-rule="evenodd" d="M27.17 0.659973H615.59C630.09 0.659973 641.96 12.53 641.96 27.04V617.74C641.96 632.25 630.09 644.12 615.59 644.12H27.17C12.66 644.12 0.799988 632.25 0.799988 617.74V27.04C0.799988 12.53 12.66 0.659973 27.17 0.659973V0.659973ZM695.31 132.56H747.49C762 132.56 773.86 144.43 773.86 158.94V749.64C773.86 764.15 762 776.02 747.49 776.02H159.08C144.57 776.02 132.7 764.15 132.7 749.64V697.46H615.59C659.43 697.46 695.31 661.58 695.31 617.74V132.56V132.56ZM224.21 357.81H224.51V200.89C224.51 188.8 234.47 180.1 246.5 178.91L461.25 157.68C473.28 156.49 483.53 167.57 483.23 179.66L477.55 413.33C482.69 452.01 452.7 486.61 413.43 486.61C377.71 486.61 348.74 457.65 348.74 421.92C348.74 386.19 377.71 357.23 413.43 357.23C417.4 357.23 421.27 357.59 425.04 358.27L426.78 272.28L286.33 292.26V404.39C298.27 445.42 267.58 487.18 224.21 487.18C188.48 487.18 159.52 458.22 159.52 422.5C159.52 386.77 188.48 357.81 224.21 357.81V357.81Z" fill="white"/>
</svg>
